M48
; DRILL file {KiCad (6.0.5)} date Fr 20 Mai 2022 17:19:47
; FORMAT={-:-/ absolute / inch / decimal}
; #@! TF.CreationDate,2022-05-20T17:19:47+02:00
; #@! TF.GenerationSoftware,Kicad,Pcbnew,(6.0.5)
; #@! TF.FileFunction,Plated,1,2,PTH
FMAT,2
INCH
; #@! TA.AperFunction,Plated,PTH,ViaDrill
T1C0.0079
; #@! TA.AperFunction,Plated,PTH,ComponentDrill
T2C0.0236
; #@! TA.AperFunction,Plated,PTH,ComponentDrill
T3C0.0256
; #@! TA.AperFunction,Plated,PTH,ComponentDrill
T4C0.0374
; #@! TA.AperFunction,Plated,PTH,ComponentDrill
T5C0.0394
; #@! TA.AperFunction,Plated,PTH,ComponentDrill
T6C0.0472
; #@! TA.AperFunction,Plated,PTH,ComponentDrill
T7C0.0630
; #@! TA.AperFunction,Plated,PTH,ComponentDrill
T8C0.0709
; #@! TA.AperFunction,Plated,PTH,ComponentDrill
T9C0.0709
%
G90
G05
T1
X-1.1909Y1.4705
X-1.0925Y1.4587
X-0.9862Y1.5177
X-0.8071Y0.4508
X-0.7835Y1.1555
X-0.7372Y1.311
X-0.7362Y-0.6063
X-0.7264Y1.4813
X-0.6969Y1.4173
X-0.6909Y1.1555
X-0.6791Y-0.1398
X-0.6634Y0.4488
X-0.6378Y-0.5138
X-0.6289Y-0.19
X-0.6122Y-0.7382
X-0.5984Y-0.0531
X-0.5906Y-0.2992
X-0.5827Y0.0689
X-0.5807Y0.1752
X-0.5236Y-0.3583
X-0.5177Y0.8858
X-0.5157Y0.6122
X-0.5138Y-0.6398
X-0.4882Y1.1555
X-0.4862Y0.999
X-0.4862Y0.6124
X-0.4803Y-0.8622
X-0.4173Y1.0659
X-0.4134Y0.9843
X-0.378Y-0.752
X-0.3356Y0.5
X-0.3179Y0.0512
X-0.2579Y1.1831
X-0.248Y1.1358
X-0.248Y0.7835
X-0.2106Y0.2047
X-0.1742Y0.4163
X-0.1457Y0.1909
X-0.1398Y-0.7854
X-0.1358Y0.2815
X-0.129Y0.2156
X-0.0945Y-0.878
X-0.0709Y-0.7854
X-0.0678Y0.1151
X-0.0531Y0.1398
X-0.0018Y-1.1041
X0.0Y-0.9882
X0.0039Y-0.9567
X0.0359Y-0.8563
X0.1102Y0.6929
X0.1102Y0.0433
X0.1122Y0.1654
X0.1181Y-0.8287
X0.1575Y-0.8209
X0.1673Y0.8583
X0.1772Y0.7441
X0.2992Y-0.6535
X0.2992Y-0.7697
X0.3189Y0.5315
X0.3957Y0.8858
X0.3996Y0.8406
X0.4075Y1.0039
X0.4094Y0.9665
X0.4134Y1.063
X0.417Y0.585
X0.435Y-0.7894
X0.4796Y1.0047
X0.4843Y0.8681
X0.4843Y0.7402
X0.5689Y0.6378
X0.6457Y0.5669
X0.6634Y0.1634
X0.6634Y0.0413
X0.7894Y0.9528
X0.9055Y0.4921
X0.9075Y0.2776
X0.9193Y0.0807
X0.921Y0.1105
X0.9211Y0.4134
X1.0Y0.1102
X1.002Y0.0768
X1.0039Y0.4134
X1.0118Y0.4902
X1.0157Y0.2776
X1.122Y0.1437
X1.122Y0.0591
X1.2126Y0.5098
X1.2382Y0.8189
T3
X-0.1138Y-0.9583
X0.1138Y-0.9583
T4
X-1.2303Y1.373
X-1.1319Y1.373
X-1.0335Y1.373
X-0.935Y1.373
X-0.8366Y1.373
X-0.7382Y1.373
T5
X-0.9843Y0.3061
X-0.9843Y0.2061
X-0.9843Y0.1061
X-0.9843Y0.0061
X-0.9843Y-0.0939
X-0.9843Y-0.1939
X-0.9843Y-0.2939
X-0.9843Y-0.3939
X-0.3031Y-0.9443
X-0.3031Y-1.0443
X0.7173Y1.4724
X0.7173Y1.3724
X0.8173Y1.4724
X0.8173Y1.3724
X0.8504Y-0.9197
X0.8504Y-1.0197
X0.9173Y1.4724
X0.9173Y1.3724
X1.0173Y1.4724
X1.0173Y1.3724
X1.1173Y1.4724
X1.1173Y1.3724
X1.2173Y1.4724
X1.2173Y1.3724
X1.3173Y1.4724
X1.3173Y1.3724
X1.4173Y1.4724
X1.4173Y1.3724
T6
X-1.9583Y1.1618
X-1.8583Y1.1618
X-1.7583Y1.1618
X-1.5146Y0.9181
X-1.5146Y0.8181
X-1.5146Y0.7181
X1.6638Y1.1618
X1.7638Y1.1618
X1.8638Y1.1618
X2.1075Y0.9181
X2.1075Y0.8181
X2.1075Y0.7181
T7
X-1.9969Y0.5902
X-1.9969Y0.413
X-1.7213Y0.5902
X-1.7213Y0.413
X1.6252Y0.5902
X1.6252Y0.413
X1.9008Y0.5902
X1.9008Y0.413
T8
X-2.1075Y1.015
X-2.1075Y0.6213
X-1.6094Y1.015
X-1.6094Y0.6213
X1.5146Y1.015
X1.5146Y0.6213
X2.0126Y1.015
X2.0126Y0.6213
T9
X-2.0276Y0.8181
X-1.689Y0.8181
X1.5945Y0.8181
X1.9331Y0.8181
T2
G00X-0.1701Y-0.9169
M15
G01X-0.1701Y-0.9602
M16
G05
G00X-0.1701Y-1.0874
M15
G01X-0.1701Y-1.1189
M16
G05
G00X0.1701Y-0.9169
M15
G01X0.1701Y-0.9602
M16
G05
G00X0.1701Y-1.0874
M15
G01X0.1701Y-1.1189
M16
G05
T0
M30
