%TF.GenerationSoftware,KiCad,Pcbnew,(6.0.5)*%
%TF.CreationDate,2022-05-20T17:19:47+02:00*%
%TF.ProjectId,hardware-remote-v2,68617264-7761-4726-952d-72656d6f7465,rev?*%
%TF.SameCoordinates,Original*%
%TF.FileFunction,Paste,Top*%
%TF.FilePolarity,Positive*%
%FSLAX46Y46*%
G04 Gerber Fmt 4.6, Leading zero omitted, Abs format (unit mm)*
G04 Created by KiCad (PCBNEW (6.0.5)) date 2022-05-20 17:19:47*
%MOMM*%
%LPD*%
G01*
G04 APERTURE LIST*
G04 Aperture macros list*
%AMRoundRect*
0 Rectangle with rounded corners*
0 $1 Rounding radius*
0 $2 $3 $4 $5 $6 $7 $8 $9 X,Y pos of 4 corners*
0 Add a 4 corners polygon primitive as box body*
4,1,4,$2,$3,$4,$5,$6,$7,$8,$9,$2,$3,0*
0 Add four circle primitives for the rounded corners*
1,1,$1+$1,$2,$3*
1,1,$1+$1,$4,$5*
1,1,$1+$1,$6,$7*
1,1,$1+$1,$8,$9*
0 Add four rect primitives between the rounded corners*
20,1,$1+$1,$2,$3,$4,$5,0*
20,1,$1+$1,$4,$5,$6,$7,0*
20,1,$1+$1,$6,$7,$8,$9,0*
20,1,$1+$1,$8,$9,$2,$3,0*%
%AMRotRect*
0 Rectangle, with rotation*
0 The origin of the aperture is its center*
0 $1 length*
0 $2 width*
0 $3 Rotation angle, in degrees counterclockwise*
0 Add horizontal line*
21,1,$1,$2,0,0,$3*%
G04 Aperture macros list end*
%ADD10R,0.600000X1.150000*%
%ADD11R,0.300000X1.150000*%
%ADD12O,1.000000X1.800000*%
%ADD13O,1.000000X2.100000*%
%ADD14C,1.800000*%
%ADD15C,2.500000*%
%ADD16C,2.200000*%
%ADD17RotRect,1.250000X0.700000X225.000000*%
%ADD18R,0.700000X1.250000*%
%ADD19RoundRect,0.150000X0.150000X-0.825000X0.150000X0.825000X-0.150000X0.825000X-0.150000X-0.825000X0*%
%ADD20RoundRect,0.200000X-0.275000X0.200000X-0.275000X-0.200000X0.275000X-0.200000X0.275000X0.200000X0*%
%ADD21RoundRect,0.200000X0.275000X-0.200000X0.275000X0.200000X-0.275000X0.200000X-0.275000X-0.200000X0*%
%ADD22RoundRect,0.225000X-0.225000X-0.250000X0.225000X-0.250000X0.225000X0.250000X-0.225000X0.250000X0*%
%ADD23RoundRect,0.225000X-0.250000X0.225000X-0.250000X-0.225000X0.250000X-0.225000X0.250000X0.225000X0*%
%ADD24RoundRect,0.225000X0.250000X-0.225000X0.250000X0.225000X-0.250000X0.225000X-0.250000X-0.225000X0*%
%ADD25R,2.000000X1.500000*%
%ADD26R,2.000000X3.800000*%
%ADD27RoundRect,0.200000X0.200000X0.275000X-0.200000X0.275000X-0.200000X-0.275000X0.200000X-0.275000X0*%
%ADD28R,2.000000X0.900000*%
%ADD29R,0.900000X2.000000*%
%ADD30R,5.000000X5.000000*%
%ADD31RoundRect,0.150000X0.150000X-0.587500X0.150000X0.587500X-0.150000X0.587500X-0.150000X-0.587500X0*%
%ADD32RoundRect,0.150000X0.587500X0.150000X-0.587500X0.150000X-0.587500X-0.150000X0.587500X-0.150000X0*%
%ADD33RoundRect,0.200000X-0.200000X-0.275000X0.200000X-0.275000X0.200000X0.275000X-0.200000X0.275000X0*%
%ADD34RoundRect,0.225000X0.225000X0.250000X-0.225000X0.250000X-0.225000X-0.250000X0.225000X-0.250000X0*%
G04 APERTURE END LIST*
D10*
%TO.C,USBC1*%
X3200000Y-23280000D03*
X2400000Y-23280000D03*
X-3200000Y-23280000D03*
X-2400000Y-23280000D03*
D11*
X1750000Y-23280000D03*
X1250000Y-23280000D03*
X750000Y-23280000D03*
X250000Y-23280000D03*
X-250000Y-23280000D03*
X-750000Y-23280000D03*
X-1250000Y-23280000D03*
X-1750000Y-23280000D03*
D12*
X4320000Y-28020000D03*
X-4320000Y-28020000D03*
D13*
X4320000Y-23840000D03*
X-4320000Y-23840000D03*
%TD*%
D14*
%TO.C,SW2*%
X53530000Y18240000D03*
X53530000Y20780000D03*
X53530000Y23320000D03*
X47340000Y29510000D03*
X44800000Y29510000D03*
X42260000Y29510000D03*
D15*
X38470000Y25780000D03*
X38470000Y15780000D03*
X51120000Y15780000D03*
X51120000Y25780000D03*
D16*
X41280000Y14990000D03*
X48280000Y14990000D03*
X41280000Y10490000D03*
X48280000Y10490000D03*
%TD*%
D14*
%TO.C,SW1*%
X-38470000Y18240000D03*
X-38470000Y20780000D03*
X-38470000Y23320000D03*
X-44660000Y29510000D03*
X-47200000Y29510000D03*
X-49740000Y29510000D03*
D15*
X-53530000Y25780000D03*
X-53530000Y15780000D03*
X-40880000Y15780000D03*
X-40880000Y25780000D03*
D16*
X-50720000Y14990000D03*
X-43720000Y14990000D03*
X-50720000Y10490000D03*
X-43720000Y10490000D03*
%TD*%
D17*
%TO.C,Q3*%
X30218755Y15062258D03*
X31562258Y13718755D03*
X32304720Y15804720D03*
%TD*%
D18*
%TO.C,Q2*%
X31450000Y18800000D03*
X33350000Y18800000D03*
X32400000Y20800000D03*
%TD*%
D19*
%TO.C,U3*%
X18455000Y15800000D03*
X19725000Y15800000D03*
X20995000Y15800000D03*
X22265000Y15800000D03*
X23535000Y15800000D03*
X24805000Y15800000D03*
X26075000Y15800000D03*
X27345000Y15800000D03*
X27345000Y20750000D03*
X26075000Y20750000D03*
X24805000Y20750000D03*
X23535000Y20750000D03*
X22265000Y20750000D03*
X20995000Y20750000D03*
X19725000Y20750000D03*
X18455000Y20750000D03*
%TD*%
D20*
%TO.C,R8*%
X34950000Y17175000D03*
X34950000Y15525000D03*
%TD*%
D21*
%TO.C,R7*%
X29200000Y16899999D03*
X29200000Y18549999D03*
%TD*%
D22*
%TO.C,C9*%
X15075000Y-20250000D03*
X16625000Y-20250000D03*
%TD*%
%TO.C,C8*%
X6225000Y-28250000D03*
X7775000Y-28250000D03*
%TD*%
D23*
%TO.C,C1*%
X-12775000Y31975000D03*
X-12775000Y30425000D03*
%TD*%
D24*
%TO.C,C3*%
X-11325000Y-26100000D03*
X-11325000Y-24550000D03*
%TD*%
D25*
%TO.C,U2*%
X10300000Y-22350000D03*
X10300000Y-24650000D03*
D26*
X16600000Y-24650000D03*
D25*
X10300000Y-26950000D03*
%TD*%
D20*
%TO.C,R6*%
X875000Y-19100000D03*
X875000Y-20750000D03*
%TD*%
%TO.C,R1*%
X-11075000Y30350000D03*
X-11075000Y28700000D03*
%TD*%
D27*
%TO.C,R2*%
X-21200000Y38575000D03*
X-22850000Y38575000D03*
%TD*%
D28*
%TO.C,U1*%
X-8500000Y31369000D03*
X-8500000Y30099000D03*
X-8500000Y28829000D03*
X-8500000Y27559000D03*
X-8500000Y26289000D03*
X-8500000Y25019000D03*
X-8500000Y23749000D03*
X-8500000Y22479000D03*
X-8500000Y21209000D03*
X-8500000Y19939000D03*
X-8500000Y18669000D03*
X-8500000Y17399000D03*
X-8500000Y16129000D03*
X-8500000Y14859000D03*
D29*
X-5715000Y13859000D03*
X-4445000Y13859000D03*
X-3175000Y13859000D03*
X-1905000Y13859000D03*
X-635000Y13859000D03*
X635000Y13859000D03*
X1905000Y13859000D03*
X3175000Y13859000D03*
X4445000Y13859000D03*
X5715000Y13859000D03*
D28*
X8500000Y14859000D03*
X8500000Y16129000D03*
X8500000Y17399000D03*
X8500000Y18669000D03*
X8500000Y19939000D03*
X8500000Y21209000D03*
X8500000Y22479000D03*
X8500000Y23749000D03*
X8500000Y25019000D03*
X8500000Y26289000D03*
X8500000Y27559000D03*
X8500000Y28829000D03*
X8500000Y30099000D03*
X8500000Y31369000D03*
D30*
X-1000000Y23869000D03*
%TD*%
D31*
%TO.C,D2*%
X23600000Y29562500D03*
X25500000Y29562500D03*
X24550000Y31437500D03*
%TD*%
D23*
%TO.C,C4*%
X24700000Y-23825000D03*
X24700000Y-25375000D03*
%TD*%
D31*
%TO.C,D4*%
X33850000Y29562500D03*
X35750000Y29562500D03*
X34800000Y31437500D03*
%TD*%
D23*
%TO.C,C6*%
X18175000Y24325000D03*
X18175000Y22775000D03*
%TD*%
D20*
%TO.C,R4*%
X-31800000Y-9175000D03*
X-31800000Y-10825000D03*
%TD*%
D32*
%TO.C,Q1*%
X-27912500Y-10950000D03*
X-27912500Y-9050000D03*
X-29787500Y-10000000D03*
%TD*%
D33*
%TO.C,R3*%
X-28775000Y38600000D03*
X-27125000Y38600000D03*
%TD*%
D21*
%TO.C,R5*%
X-875000Y-20750000D03*
X-875000Y-19100000D03*
%TD*%
D31*
%TO.C,D1*%
X18500000Y29562500D03*
X20400000Y29562500D03*
X19450000Y31437500D03*
%TD*%
D23*
%TO.C,C2*%
X-14350000Y31975000D03*
X-14350000Y30425000D03*
%TD*%
D22*
%TO.C,C5*%
X19550000Y13725000D03*
X21100000Y13725000D03*
%TD*%
D31*
%TO.C,D3*%
X28550000Y29562500D03*
X30450000Y29562500D03*
X29500000Y31437500D03*
%TD*%
D34*
%TO.C,C7*%
X21225000Y23150000D03*
X19675000Y23150000D03*
%TD*%
M02*
