%TF.GenerationSoftware,KiCad,Pcbnew,(6.0.5)*%
%TF.CreationDate,2022-05-19T20:55:00+02:00*%
%TF.ProjectId,hardware-remote-v2,68617264-7761-4726-952d-72656d6f7465,rev?*%
%TF.SameCoordinates,Original*%
%TF.FileFunction,Soldermask,Top*%
%TF.FilePolarity,Negative*%
%FSLAX46Y46*%
G04 Gerber Fmt 4.6, Leading zero omitted, Abs format (unit mm)*
G04 Created by KiCad (PCBNEW (6.0.5)) date 2022-05-19 20:55:00*
%MOMM*%
%LPD*%
G01*
G04 APERTURE LIST*
G04 Aperture macros list*
%AMRoundRect*
0 Rectangle with rounded corners*
0 $1 Rounding radius*
0 $2 $3 $4 $5 $6 $7 $8 $9 X,Y pos of 4 corners*
0 Add a 4 corners polygon primitive as box body*
4,1,4,$2,$3,$4,$5,$6,$7,$8,$9,$2,$3,0*
0 Add four circle primitives for the rounded corners*
1,1,$1+$1,$2,$3*
1,1,$1+$1,$4,$5*
1,1,$1+$1,$6,$7*
1,1,$1+$1,$8,$9*
0 Add four rect primitives between the rounded corners*
20,1,$1+$1,$2,$3,$4,$5,0*
20,1,$1+$1,$4,$5,$6,$7,0*
20,1,$1+$1,$6,$7,$8,$9,0*
20,1,$1+$1,$8,$9,$2,$3,0*%
G04 Aperture macros list end*
%ADD10C,1.800000*%
%ADD11C,2.500000*%
%ADD12C,2.200000*%
%ADD13C,0.700000*%
%ADD14O,1.200000X2.000000*%
%ADD15O,1.200000X1.800000*%
%ADD16R,0.300000X1.300000*%
%ADD17RoundRect,0.150000X0.150000X-0.825000X0.150000X0.825000X-0.150000X0.825000X-0.150000X-0.825000X0*%
%ADD18RoundRect,0.225000X0.225000X0.250000X-0.225000X0.250000X-0.225000X-0.250000X0.225000X-0.250000X0*%
%ADD19RoundRect,0.225000X-0.250000X0.225000X-0.250000X-0.225000X0.250000X-0.225000X0.250000X0.225000X0*%
%ADD20RoundRect,0.225000X-0.225000X-0.250000X0.225000X-0.250000X0.225000X0.250000X-0.225000X0.250000X0*%
%ADD21RoundRect,0.225000X0.250000X-0.225000X0.250000X0.225000X-0.250000X0.225000X-0.250000X-0.225000X0*%
%ADD22R,2.000000X1.500000*%
%ADD23R,2.000000X3.800000*%
%ADD24RoundRect,0.200000X-0.275000X0.200000X-0.275000X-0.200000X0.275000X-0.200000X0.275000X0.200000X0*%
%ADD25RoundRect,0.250000X-0.600000X-0.725000X0.600000X-0.725000X0.600000X0.725000X-0.600000X0.725000X0*%
%ADD26O,1.700000X1.950000*%
%ADD27RoundRect,0.200000X0.200000X0.275000X-0.200000X0.275000X-0.200000X-0.275000X0.200000X-0.275000X0*%
%ADD28R,1.700000X1.700000*%
%ADD29O,1.700000X1.700000*%
%ADD30R,2.000000X0.900000*%
%ADD31R,0.900000X2.000000*%
%ADD32R,5.000000X5.000000*%
%ADD33RoundRect,0.150000X0.150000X-0.587500X0.150000X0.587500X-0.150000X0.587500X-0.150000X-0.587500X0*%
%ADD34RoundRect,0.150000X0.587500X0.150000X-0.587500X0.150000X-0.587500X-0.150000X0.587500X-0.150000X0*%
%ADD35RoundRect,0.200000X-0.200000X-0.275000X0.200000X-0.275000X0.200000X0.275000X-0.200000X0.275000X0*%
%ADD36RoundRect,0.200000X0.275000X-0.200000X0.275000X0.200000X-0.275000X0.200000X-0.275000X-0.200000X0*%
G04 APERTURE END LIST*
D10*
%TO.C,SW2*%
X53530000Y18240000D03*
X53530000Y20780000D03*
X53530000Y23320000D03*
X47340000Y29510000D03*
X44800000Y29510000D03*
X42260000Y29510000D03*
D11*
X38470000Y25780000D03*
X38470000Y15780000D03*
X51120000Y15780000D03*
X51120000Y25780000D03*
D12*
X41280000Y14990000D03*
X48280000Y14990000D03*
X41280000Y10490000D03*
X48280000Y10490000D03*
D10*
X40500000Y20780000D03*
X49100000Y20780000D03*
%TD*%
%TO.C,SW1*%
X-38470000Y18240000D03*
X-38470000Y20780000D03*
X-38470000Y23320000D03*
X-44660000Y29510000D03*
X-47200000Y29510000D03*
X-49740000Y29510000D03*
D11*
X-53530000Y25780000D03*
X-53530000Y15780000D03*
X-40880000Y15780000D03*
X-40880000Y25780000D03*
D12*
X-50720000Y14990000D03*
X-43720000Y14990000D03*
X-50720000Y10490000D03*
X-43720000Y10490000D03*
D10*
X-51500000Y20780000D03*
X-42900000Y20780000D03*
%TD*%
D13*
%TO.C,USB1*%
X2890000Y-24395000D03*
X-2890000Y-24395000D03*
D14*
X-4320000Y-23855000D03*
X4320000Y-23855000D03*
D15*
X4320000Y-28045000D03*
X-4320000Y-28045000D03*
D16*
X1250000Y-23205000D03*
X3350000Y-23205000D03*
X3050000Y-23205000D03*
X2550000Y-23215000D03*
X2250000Y-23215000D03*
X1750000Y-23205000D03*
X750000Y-23205000D03*
X250000Y-23205000D03*
X-250000Y-23205000D03*
X-750000Y-23205000D03*
X-1250000Y-23205000D03*
X-1750000Y-23205000D03*
X-2250000Y-23205000D03*
X-2550000Y-23205000D03*
X-3050000Y-23205000D03*
X-3350000Y-23205000D03*
%TD*%
D17*
%TO.C,U3*%
X18455000Y15800000D03*
X19725000Y15800000D03*
X20995000Y15800000D03*
X22265000Y15800000D03*
X23535000Y15800000D03*
X24805000Y15800000D03*
X26075000Y15800000D03*
X27345000Y15800000D03*
X27345000Y20750000D03*
X26075000Y20750000D03*
X24805000Y20750000D03*
X23535000Y20750000D03*
X22265000Y20750000D03*
X20995000Y20750000D03*
X19725000Y20750000D03*
X18455000Y20750000D03*
%TD*%
D18*
%TO.C,C7*%
X21225000Y23150000D03*
X19675000Y23150000D03*
%TD*%
D19*
%TO.C,C6*%
X18175000Y24325000D03*
X18175000Y22775000D03*
%TD*%
D20*
%TO.C,C5*%
X19550000Y13725000D03*
X21100000Y13725000D03*
%TD*%
D19*
%TO.C,C1*%
X-12775000Y31975000D03*
X-12775000Y30425000D03*
%TD*%
D21*
%TO.C,C3*%
X-11325000Y-26100000D03*
X-11325000Y-24550000D03*
%TD*%
D22*
%TO.C,U2*%
X10300000Y-22350000D03*
X10300000Y-24650000D03*
D23*
X16600000Y-24650000D03*
D22*
X10300000Y-26950000D03*
%TD*%
D24*
%TO.C,R6*%
X875000Y-19100000D03*
X875000Y-20750000D03*
%TD*%
D25*
%TO.C,J1*%
X-31250000Y34875000D03*
D26*
X-28750000Y34875000D03*
X-26250000Y34875000D03*
X-23750000Y34875000D03*
X-21250000Y34875000D03*
X-18750000Y34875000D03*
%TD*%
D24*
%TO.C,R1*%
X-11075000Y30350000D03*
X-11075000Y28700000D03*
%TD*%
D27*
%TO.C,R2*%
X-21200000Y38575000D03*
X-22850000Y38575000D03*
%TD*%
D28*
%TO.C,J2*%
X-25000000Y7775000D03*
D29*
X-25000000Y5235000D03*
X-25000000Y2695000D03*
X-25000000Y155000D03*
X-25000000Y-2385000D03*
X-25000000Y-4925000D03*
X-25000000Y-7465000D03*
X-25000000Y-10005000D03*
%TD*%
D30*
%TO.C,U1*%
X-8500000Y31369000D03*
X-8500000Y30099000D03*
X-8500000Y28829000D03*
X-8500000Y27559000D03*
X-8500000Y26289000D03*
X-8500000Y25019000D03*
X-8500000Y23749000D03*
X-8500000Y22479000D03*
X-8500000Y21209000D03*
X-8500000Y19939000D03*
X-8500000Y18669000D03*
X-8500000Y17399000D03*
X-8500000Y16129000D03*
X-8500000Y14859000D03*
D31*
X-5715000Y13859000D03*
X-4445000Y13859000D03*
X-3175000Y13859000D03*
X-1905000Y13859000D03*
X-635000Y13859000D03*
X635000Y13859000D03*
X1905000Y13859000D03*
X3175000Y13859000D03*
X4445000Y13859000D03*
X5715000Y13859000D03*
D30*
X8500000Y14859000D03*
X8500000Y16129000D03*
X8500000Y17399000D03*
X8500000Y18669000D03*
X8500000Y19939000D03*
X8500000Y21209000D03*
X8500000Y22479000D03*
X8500000Y23749000D03*
X8500000Y25019000D03*
X8500000Y26289000D03*
X8500000Y27559000D03*
X8500000Y28829000D03*
X8500000Y30099000D03*
X8500000Y31369000D03*
D32*
X-1000000Y23869000D03*
%TD*%
D33*
%TO.C,D2*%
X23600000Y29562500D03*
X25500000Y29562500D03*
X24550000Y31437500D03*
%TD*%
D28*
%TO.C,J4*%
X21550000Y-23400000D03*
D29*
X21550000Y-25940000D03*
%TD*%
D21*
%TO.C,C4*%
X24825000Y-25650000D03*
X24825000Y-24100000D03*
%TD*%
D33*
%TO.C,D4*%
X33850000Y29562500D03*
X35750000Y29562500D03*
X34800000Y31437500D03*
%TD*%
D28*
%TO.C,J5*%
X18220000Y34859999D03*
D29*
X18220000Y37399999D03*
X20760000Y34859999D03*
X20760000Y37399999D03*
X23300000Y34859999D03*
X23300000Y37399999D03*
X25840000Y34859999D03*
X25840000Y37399999D03*
X28380000Y34859999D03*
X28380000Y37399999D03*
X30920000Y34859999D03*
X30920000Y37399999D03*
X33460000Y34859999D03*
X33460000Y37399999D03*
X36000000Y34859999D03*
X36000000Y37399999D03*
%TD*%
D24*
%TO.C,R4*%
X-31800000Y-9175000D03*
X-31800000Y-10825000D03*
%TD*%
D34*
%TO.C,Q1*%
X-27912500Y-10950000D03*
X-27912500Y-9050000D03*
X-29787500Y-10000000D03*
%TD*%
D28*
%TO.C,J3*%
X-7700000Y-26524999D03*
D29*
X-7700000Y-23984999D03*
%TD*%
D35*
%TO.C,R3*%
X-28775000Y38600000D03*
X-27125000Y38600000D03*
%TD*%
D36*
%TO.C,R5*%
X-875000Y-20750000D03*
X-875000Y-19100000D03*
%TD*%
D33*
%TO.C,D1*%
X18500000Y29562500D03*
X20400000Y29562500D03*
X19450000Y31437500D03*
%TD*%
D19*
%TO.C,C2*%
X-14350000Y31975000D03*
X-14350000Y30425000D03*
%TD*%
D33*
%TO.C,D3*%
X28550000Y29562500D03*
X30450000Y29562500D03*
X29500000Y31437500D03*
%TD*%
M02*
