M48
; DRILL file {KiCad (6.0.5)} date Do 19 Mai 2022 20:55:00
; FORMAT={-:-/ absolute / inch / decimal}
; #@! TF.CreationDate,2022-05-19T20:55:00+02:00
; #@! TF.GenerationSoftware,Kicad,Pcbnew,(6.0.5)
; #@! TF.FileFunction,Plated,1,2,PTH
FMAT,2
INCH
; #@! TA.AperFunction,Plated,PTH,ViaDrill
T1C0.0079
; #@! TA.AperFunction,Plated,PTH,ViaDrill
T2C0.0157
; #@! TA.AperFunction,Plated,PTH,ComponentDrill
T3C0.0276
; #@! TA.AperFunction,Plated,PTH,ComponentDrill
T4C0.0276
; #@! TA.AperFunction,Plated,PTH,ComponentDrill
T5C0.0374
; #@! TA.AperFunction,Plated,PTH,ComponentDrill
T6C0.0394
; #@! TA.AperFunction,Plated,PTH,ComponentDrill
T7C0.0472
; #@! TA.AperFunction,Plated,PTH,ComponentDrill
T8C0.0630
; #@! TA.AperFunction,Plated,PTH,ComponentDrill
T9C0.0709
; #@! TA.AperFunction,Plated,PTH,ComponentDrill
T10C0.0709
%
G90
G05
T1
X-0.7835Y1.1555
X-0.7303Y1.4823
X-0.6909Y1.1555
X-0.687Y1.437
X-0.5177Y0.8858
X-0.5138Y0.6142
X-0.4902Y1.1457
X-0.4902Y0.6144
X-0.4134Y0.9843
X-0.248Y0.7835
X-0.2461Y1.0886
X-0.2106Y0.2047
X-0.1398Y-0.7854
X-0.1391Y0.1864
X-0.1358Y0.2815
X-0.1194Y0.206
X-0.0945Y-0.878
X-0.0807Y0.128
X-0.0709Y-0.7854
X-0.0601Y0.1487
X0.0098Y-0.8799
X0.0359Y-0.8563
X0.1122Y-0.8366
X0.1496Y-0.8287
X0.2992Y-0.6535
X0.2992Y-0.7697
X0.3189Y0.5315
X0.3957Y0.8858
X0.4016Y0.8445
X0.4075Y1.0039
X0.4094Y0.9665
X0.4134Y1.063
X0.417Y0.585
X0.435Y-0.7894
X0.477Y1.0045
X0.6791Y0.6969
X0.7894Y0.9528
X0.9055Y0.4921
X0.9075Y0.2776
X0.9231Y0.4134
X0.9231Y0.1102
X0.9231Y0.0768
X0.9764Y0.749
X0.9941Y0.7283
X0.9978Y0.4134
X0.9978Y0.1102
X0.9978Y0.0768
X1.0118Y0.4902
X1.0157Y0.2776
X1.122Y0.1437
X1.122Y0.0591
T2
X-0.9862Y1.5177
X-0.7372Y1.311
X-0.6289Y-0.19
X-0.4862Y0.999
X-0.4173Y1.0659
X-0.3356Y0.5
X-0.3179Y0.0512
X-0.2579Y1.1831
X-0.1742Y0.4163
T3
X-0.1138Y-0.9604
X0.1138Y-0.9604
T5
X-1.2303Y1.373
X-1.1319Y1.373
X-1.0335Y1.373
X-0.935Y1.373
X-0.8366Y1.373
X-0.7382Y1.373
T6
X-0.9843Y0.3061
X-0.9843Y0.2061
X-0.9843Y0.1061
X-0.9843Y0.0061
X-0.9843Y-0.0939
X-0.9843Y-0.1939
X-0.9843Y-0.2939
X-0.9843Y-0.3939
X-0.3031Y-0.9443
X-0.3031Y-1.0443
X0.7173Y1.4724
X0.7173Y1.3724
X0.8173Y1.4724
X0.8173Y1.3724
X0.8484Y-0.9213
X0.8484Y-1.0213
X0.9173Y1.4724
X0.9173Y1.3724
X1.0173Y1.4724
X1.0173Y1.3724
X1.1173Y1.4724
X1.1173Y1.3724
X1.2173Y1.4724
X1.2173Y1.3724
X1.3173Y1.4724
X1.3173Y1.3724
X1.4173Y1.4724
X1.4173Y1.3724
T7
X-1.9583Y1.1618
X-1.8583Y1.1618
X-1.7583Y1.1618
X-1.5146Y0.9181
X-1.5146Y0.8181
X-1.5146Y0.7181
X1.6638Y1.1618
X1.7638Y1.1618
X1.8638Y1.1618
X2.1075Y0.9181
X2.1075Y0.8181
X2.1075Y0.7181
T8
X-1.9969Y0.5902
X-1.9969Y0.413
X-1.7213Y0.5902
X-1.7213Y0.413
X1.6252Y0.5902
X1.6252Y0.413
X1.9008Y0.5902
X1.9008Y0.413
T9
X-2.1075Y1.015
X-2.1075Y0.6213
X-1.6094Y1.015
X-1.6094Y0.6213
X1.5146Y1.015
X1.5146Y0.6213
X2.0126Y1.015
X2.0126Y0.6213
T10
X-2.0276Y0.8181
X-1.689Y0.8181
X1.5945Y0.8181
X1.9331Y0.8181
T4
G00X-0.1701Y-0.9195
M15
G01X-0.1701Y-0.9589
M16
G05
G00X-0.1701Y-1.0904
M15
G01X-0.1701Y-1.1179
M16
G05
G00X0.1701Y-0.9195
M15
G01X0.1701Y-0.9589
M16
G05
G00X0.1701Y-1.0904
M15
G01X0.1701Y-1.1179
M16
G05
T0
M30
