%TF.GenerationSoftware,KiCad,Pcbnew,(6.0.5)*%
%TF.CreationDate,2022-05-20T17:19:47+02:00*%
%TF.ProjectId,hardware-remote-v2,68617264-7761-4726-952d-72656d6f7465,rev?*%
%TF.SameCoordinates,Original*%
%TF.FileFunction,Legend,Bot*%
%TF.FilePolarity,Positive*%
%FSLAX46Y46*%
G04 Gerber Fmt 4.6, Leading zero omitted, Abs format (unit mm)*
G04 Created by KiCad (PCBNEW (6.0.5)) date 2022-05-20 17:19:47*
%MOMM*%
%LPD*%
G01*
G04 APERTURE LIST*
G04 Aperture macros list*
%AMRoundRect*
0 Rectangle with rounded corners*
0 $1 Rounding radius*
0 $2 $3 $4 $5 $6 $7 $8 $9 X,Y pos of 4 corners*
0 Add a 4 corners polygon primitive as box body*
4,1,4,$2,$3,$4,$5,$6,$7,$8,$9,$2,$3,0*
0 Add four circle primitives for the rounded corners*
1,1,$1+$1,$2,$3*
1,1,$1+$1,$4,$5*
1,1,$1+$1,$6,$7*
1,1,$1+$1,$8,$9*
0 Add four rect primitives between the rounded corners*
20,1,$1+$1,$2,$3,$4,$5,0*
20,1,$1+$1,$4,$5,$6,$7,0*
20,1,$1+$1,$6,$7,$8,$9,0*
20,1,$1+$1,$8,$9,$2,$3,0*%
G04 Aperture macros list end*
%ADD10O,1.000000X1.800000*%
%ADD11O,1.000000X2.100000*%
%ADD12C,0.650000*%
%ADD13C,1.800000*%
%ADD14C,2.500000*%
%ADD15C,2.200000*%
%ADD16RoundRect,0.250000X-0.600000X-0.725000X0.600000X-0.725000X0.600000X0.725000X-0.600000X0.725000X0*%
%ADD17O,1.700000X1.950000*%
%ADD18R,1.700000X1.700000*%
%ADD19O,1.700000X1.700000*%
G04 APERTURE END LIST*
%LPC*%
D10*
%TO.C,USBC1*%
X4320000Y-28020000D03*
X-4320000Y-28020000D03*
D11*
X4320000Y-23840000D03*
X-4320000Y-23840000D03*
D12*
X2890000Y-24340000D03*
X-2890000Y-24340000D03*
%TD*%
D13*
%TO.C,SW2*%
X53530000Y18240000D03*
X53530000Y20780000D03*
X53530000Y23320000D03*
X47340000Y29510000D03*
X44800000Y29510000D03*
X42260000Y29510000D03*
D14*
X38470000Y25780000D03*
X38470000Y15780000D03*
X51120000Y15780000D03*
X51120000Y25780000D03*
D15*
X41280000Y14990000D03*
X48280000Y14990000D03*
X41280000Y10490000D03*
X48280000Y10490000D03*
D13*
X40500000Y20780000D03*
X49100000Y20780000D03*
%TD*%
%TO.C,SW1*%
X-38470000Y18240000D03*
X-38470000Y20780000D03*
X-38470000Y23320000D03*
X-44660000Y29510000D03*
X-47200000Y29510000D03*
X-49740000Y29510000D03*
D14*
X-53530000Y25780000D03*
X-53530000Y15780000D03*
X-40880000Y15780000D03*
X-40880000Y25780000D03*
D15*
X-50720000Y14990000D03*
X-43720000Y14990000D03*
X-50720000Y10490000D03*
X-43720000Y10490000D03*
D13*
X-51500000Y20780000D03*
X-42900000Y20780000D03*
%TD*%
D16*
%TO.C,J1*%
X-31250000Y34875000D03*
D17*
X-28750000Y34875000D03*
X-26250000Y34875000D03*
X-23750000Y34875000D03*
X-21250000Y34875000D03*
X-18750000Y34875000D03*
%TD*%
D18*
%TO.C,J2*%
X-25000000Y7775000D03*
D19*
X-25000000Y5235000D03*
X-25000000Y2695000D03*
X-25000000Y155000D03*
X-25000000Y-2385000D03*
X-25000000Y-4925000D03*
X-25000000Y-7465000D03*
X-25000000Y-10005000D03*
%TD*%
D18*
%TO.C,J4*%
X21600000Y-25900000D03*
D19*
X21600000Y-23360000D03*
%TD*%
D18*
%TO.C,J5*%
X18220000Y34859999D03*
D19*
X18220000Y37399999D03*
X20760000Y34859999D03*
X20760000Y37399999D03*
X23300000Y34859999D03*
X23300000Y37399999D03*
X25840000Y34859999D03*
X25840000Y37399999D03*
X28380000Y34859999D03*
X28380000Y37399999D03*
X30920000Y34859999D03*
X30920000Y37399999D03*
X33460000Y34859999D03*
X33460000Y37399999D03*
X36000000Y34859999D03*
X36000000Y37399999D03*
%TD*%
D18*
%TO.C,J3*%
X-7700000Y-26524999D03*
D19*
X-7700000Y-23984999D03*
%TD*%
M02*
